<mxfile host="app.diagrams.net" agent="Mozilla/5.0 (X11; Ubuntu; Linux x86_64; rv:137.0) Gecko/20100101 Firefox/137.0" version="26.2.13">
  <diagram id="prtHgNgQTEPvFCAcTncT" name="Page-1">
    <mxGraphModel dx="1998" dy="1160" grid="1" gridSize="10" guides="1" tooltips="1" connect="1" arrows="1" fold="1" page="1" pageScale="1" pageWidth="827" pageHeight="1169" math="0" shadow="0">
      <root>
        <mxCell id="0" />
        <mxCell id="1" parent="0" />
        <mxCell id="-J8H6lTOcyASX2N615u_-4" value="三维人脸表示" style="rounded=0;whiteSpace=wrap;html=1;verticalAlign=top;" vertex="1" parent="1">
          <mxGeometry x="210" y="280" width="350" height="100" as="geometry" />
        </mxCell>
        <mxCell id="-J8H6lTOcyASX2N615u_-18" value="" style="edgeStyle=orthogonalEdgeStyle;rounded=0;orthogonalLoop=1;jettySize=auto;html=1;" edge="1" parent="1" source="-J8H6lTOcyASX2N615u_-1" target="-J8H6lTOcyASX2N615u_-2">
          <mxGeometry relative="1" as="geometry" />
        </mxCell>
        <mxCell id="-J8H6lTOcyASX2N615u_-1" value="三维可变形人脸模型" style="rounded=0;whiteSpace=wrap;html=1;" vertex="1" parent="1">
          <mxGeometry x="230" y="310" width="90" height="60" as="geometry" />
        </mxCell>
        <mxCell id="-J8H6lTOcyASX2N615u_-10" value="" style="edgeStyle=orthogonalEdgeStyle;rounded=0;orthogonalLoop=1;jettySize=auto;html=1;entryX=0.5;entryY=0;entryDx=0;entryDy=0;exitX=0.5;exitY=1;exitDx=0;exitDy=0;" edge="1" parent="1" source="-J8H6lTOcyASX2N615u_-4" target="-J8H6lTOcyASX2N615u_-5">
          <mxGeometry relative="1" as="geometry">
            <mxPoint x="380" y="390" as="sourcePoint" />
          </mxGeometry>
        </mxCell>
        <mxCell id="-J8H6lTOcyASX2N615u_-26" value="提供形状建模基础" style="edgeLabel;html=1;align=center;verticalAlign=middle;resizable=0;points=[];" vertex="1" connectable="0" parent="-J8H6lTOcyASX2N615u_-10">
          <mxGeometry x="0.16" y="2" relative="1" as="geometry">
            <mxPoint as="offset" />
          </mxGeometry>
        </mxCell>
        <mxCell id="-J8H6lTOcyASX2N615u_-19" value="" style="edgeStyle=orthogonalEdgeStyle;rounded=0;orthogonalLoop=1;jettySize=auto;html=1;" edge="1" parent="1" source="-J8H6lTOcyASX2N615u_-2" target="-J8H6lTOcyASX2N615u_-3">
          <mxGeometry relative="1" as="geometry" />
        </mxCell>
        <mxCell id="-J8H6lTOcyASX2N615u_-2" value="局部可变形人脸模型" style="rounded=0;whiteSpace=wrap;html=1;" vertex="1" parent="1">
          <mxGeometry x="340" y="310" width="90" height="60" as="geometry" />
        </mxCell>
        <mxCell id="-J8H6lTOcyASX2N615u_-3" value="隐式神经网络表示" style="rounded=0;whiteSpace=wrap;html=1;" vertex="1" parent="1">
          <mxGeometry x="450" y="310" width="90" height="60" as="geometry" />
        </mxCell>
        <mxCell id="-J8H6lTOcyASX2N615u_-16" style="edgeStyle=orthogonalEdgeStyle;rounded=0;orthogonalLoop=1;jettySize=auto;html=1;exitX=0.5;exitY=1;exitDx=0;exitDy=0;" edge="1" parent="1" source="-J8H6lTOcyASX2N615u_-5" target="-J8H6lTOcyASX2N615u_-11">
          <mxGeometry relative="1" as="geometry" />
        </mxCell>
        <mxCell id="-J8H6lTOcyASX2N615u_-27" value="提供特征数据" style="edgeLabel;html=1;align=center;verticalAlign=middle;resizable=0;points=[];" vertex="1" connectable="0" parent="-J8H6lTOcyASX2N615u_-16">
          <mxGeometry x="0.2" y="4" relative="1" as="geometry">
            <mxPoint as="offset" />
          </mxGeometry>
        </mxCell>
        <mxCell id="-J8H6lTOcyASX2N615u_-5" value="面部成分获取" style="rounded=0;whiteSpace=wrap;html=1;verticalAlign=top;" vertex="1" parent="1">
          <mxGeometry x="155" y="430" width="460" height="100" as="geometry" />
        </mxCell>
        <mxCell id="-J8H6lTOcyASX2N615u_-20" value="" style="edgeStyle=orthogonalEdgeStyle;rounded=0;orthogonalLoop=1;jettySize=auto;html=1;" edge="1" parent="1" source="-J8H6lTOcyASX2N615u_-6" target="-J8H6lTOcyASX2N615u_-7">
          <mxGeometry relative="1" as="geometry" />
        </mxCell>
        <mxCell id="-J8H6lTOcyASX2N615u_-6" value="算法层面获取" style="rounded=0;whiteSpace=wrap;html=1;" vertex="1" parent="1">
          <mxGeometry x="175" y="460" width="90" height="60" as="geometry" />
        </mxCell>
        <mxCell id="-J8H6lTOcyASX2N615u_-21" value="" style="edgeStyle=orthogonalEdgeStyle;rounded=0;orthogonalLoop=1;jettySize=auto;html=1;" edge="1" parent="1" source="-J8H6lTOcyASX2N615u_-7" target="-J8H6lTOcyASX2N615u_-8">
          <mxGeometry relative="1" as="geometry" />
        </mxCell>
        <mxCell id="-J8H6lTOcyASX2N615u_-7" value="隐式表达获取" style="rounded=0;whiteSpace=wrap;html=1;" vertex="1" parent="1">
          <mxGeometry x="285" y="460" width="90" height="60" as="geometry" />
        </mxCell>
        <mxCell id="-J8H6lTOcyASX2N615u_-22" value="" style="edgeStyle=orthogonalEdgeStyle;rounded=0;orthogonalLoop=1;jettySize=auto;html=1;" edge="1" parent="1" source="-J8H6lTOcyASX2N615u_-8" target="-J8H6lTOcyASX2N615u_-9">
          <mxGeometry relative="1" as="geometry" />
        </mxCell>
        <mxCell id="-J8H6lTOcyASX2N615u_-8" value="身份信息提取" style="rounded=0;whiteSpace=wrap;html=1;" vertex="1" parent="1">
          <mxGeometry x="395" y="460" width="90" height="60" as="geometry" />
        </mxCell>
        <mxCell id="-J8H6lTOcyASX2N615u_-9" value="表情特征提取" style="rounded=0;whiteSpace=wrap;html=1;" vertex="1" parent="1">
          <mxGeometry x="505" y="460" width="90" height="60" as="geometry" />
        </mxCell>
        <mxCell id="-J8H6lTOcyASX2N615u_-11" value="表情迁移方法" style="rounded=0;whiteSpace=wrap;html=1;verticalAlign=top;" vertex="1" parent="1">
          <mxGeometry x="150" y="590" width="470" height="100" as="geometry" />
        </mxCell>
        <mxCell id="-J8H6lTOcyASX2N615u_-23" value="" style="edgeStyle=orthogonalEdgeStyle;rounded=0;orthogonalLoop=1;jettySize=auto;html=1;" edge="1" parent="1" source="-J8H6lTOcyASX2N615u_-12" target="-J8H6lTOcyASX2N615u_-13">
          <mxGeometry relative="1" as="geometry" />
        </mxCell>
        <mxCell id="-J8H6lTOcyASX2N615u_-12" value="图像驱动迁移" style="rounded=0;whiteSpace=wrap;html=1;" vertex="1" parent="1">
          <mxGeometry x="175" y="620" width="90" height="60" as="geometry" />
        </mxCell>
        <mxCell id="-J8H6lTOcyASX2N615u_-24" value="" style="edgeStyle=orthogonalEdgeStyle;rounded=0;orthogonalLoop=1;jettySize=auto;html=1;" edge="1" parent="1" source="-J8H6lTOcyASX2N615u_-13" target="-J8H6lTOcyASX2N615u_-14">
          <mxGeometry relative="1" as="geometry" />
        </mxCell>
        <mxCell id="-J8H6lTOcyASX2N615u_-13" value="三维模型迁移" style="rounded=0;whiteSpace=wrap;html=1;" vertex="1" parent="1">
          <mxGeometry x="287" y="620" width="90" height="60" as="geometry" />
        </mxCell>
        <mxCell id="-J8H6lTOcyASX2N615u_-25" value="" style="edgeStyle=orthogonalEdgeStyle;rounded=0;orthogonalLoop=1;jettySize=auto;html=1;" edge="1" parent="1" source="-J8H6lTOcyASX2N615u_-14" target="-J8H6lTOcyASX2N615u_-15">
          <mxGeometry relative="1" as="geometry" />
        </mxCell>
        <mxCell id="-J8H6lTOcyASX2N615u_-14" value="几何相似迁移" style="rounded=0;whiteSpace=wrap;html=1;" vertex="1" parent="1">
          <mxGeometry x="398" y="620" width="90" height="60" as="geometry" />
        </mxCell>
        <mxCell id="-J8H6lTOcyASX2N615u_-15" value="隐式表达迁移" style="rounded=0;whiteSpace=wrap;html=1;" vertex="1" parent="1">
          <mxGeometry x="510" y="620" width="90" height="60" as="geometry" />
        </mxCell>
      </root>
    </mxGraphModel>
  </diagram>
</mxfile>
